<svg width="45" height="45" viewBox="0 0 45 45" fill="none" xmlns="http://www.w3.org/2000/svg">
<path d="M6.59621 0H1.32427C0.596445 0 0.00634766 0.590098 0.00634766 1.31801V6.67784C0.00634766 7.40575 0.596357 7.99585 1.32436 7.99585C2.05227 7.99585 2.64236 7.40575 2.64236 6.67784V2.63602H6.5963C7.32421 2.63602 7.91431 2.04592 7.91431 1.31801C7.91422 0.590098 7.32412 0 6.59621 0Z" fill="white"/>
<path d="M43.6756 0H38.4037C37.6758 0 37.0857 0.590098 37.0857 1.31801C37.0857 2.04592 37.6757 2.63602 38.4037 2.63602H42.3576V6.67784C42.3576 7.40575 42.9477 7.99585 43.6756 7.99585C44.4036 7.99585 44.9937 7.40575 44.9937 6.67784V1.31801C44.9937 0.590098 44.4036 0 43.6756 0Z" fill="white"/>
<path d="M6.5963 42.3513H2.64236V38.3095C2.64236 37.5816 2.05227 36.9915 1.32436 36.9915C0.596445 36.9915 0.00634766 37.5816 0.00634766 38.3095V43.6693C0.00634766 44.3972 0.596357 44.9873 1.32436 44.9873H6.5963C7.32421 44.9873 7.91431 44.3972 7.91431 43.6693C7.91431 42.9414 7.32421 42.3513 6.5963 42.3513Z" fill="white"/>
<path d="M43.6756 36.9915C42.9477 36.9915 42.3576 37.5816 42.3576 38.3095V42.3513H38.4037C37.6758 42.3513 37.0857 42.9414 37.0857 43.6693C37.0857 44.3972 37.6758 44.9873 38.4037 44.9873H43.6756C44.4036 44.9873 44.9937 44.3972 44.9937 43.6693V38.3095C44.9937 37.5816 44.4036 36.9915 43.6756 36.9915Z" fill="white"/>
<path d="M41.517 10.8126L23.1608 0.177614C22.7521 -0.0591638 22.2479 -0.0591638 21.8393 0.177614L3.47562 10.8125C3.0708 11.047 2.81812 11.4838 2.81812 11.9521C2.81812 11.9547 2.81838 11.9573 2.81838 11.9599V33.0469C2.81838 33.5197 3.07528 33.9622 3.48898 34.1951L21.8394 44.8224C22.0371 44.937 22.2723 45 22.5002 45C22.7381 45 22.9706 44.9327 23.1609 44.8224L41.5039 34.195C41.507 34.1932 41.5099 34.1915 41.513 34.1897C41.9381 33.883 42.1673 33.6252 42.1737 33.0629C42.1738 33.0576 42.1742 33.0524 42.1742 33.0471V11.9601C42.1742 11.9574 42.1745 11.9548 42.1745 11.9522C42.1745 11.4835 41.9216 11.0467 41.517 10.8126ZM21.1821 41.3952L6.7833 33.0529L17.8838 26.6871C18.5153 26.325 18.7336 25.5196 18.3714 24.8881C18.0094 24.2567 17.204 24.0384 16.5725 24.4005L5.45413 30.7719V14.2303L21.1821 23.2628V41.3952ZM22.5001 20.98L6.78137 11.9483L22.5001 2.84123L38.2188 11.9483L22.5001 20.98ZM39.5468 30.7719L28.4277 24.4004C27.7963 24.0384 26.9909 24.2566 26.6287 24.8881C26.2665 25.5196 26.4849 26.3249 27.1164 26.687L38.2169 33.0527L23.818 41.3951V23.2628L39.5467 14.2303V30.7719H39.5468Z" fill="white"/>
</svg>
