<svg width="606" height="120" viewBox="0 0 606 120" fill="none" xmlns="http://www.w3.org/2000/svg">
<path d="M88.6354 70.6542L100.776 91.6822H76.4948L88.6354 70.6542Z" fill="#434BC6"/>
<path d="M88.6354 70.6542L100.776 91.6822H76.4948L88.6354 70.6542Z" fill="#9399FF"/>
<circle cx="74.056" cy="15.1402" r="11.7757" fill="#434BC6"/>
<circle cx="74.056" cy="15.1402" r="11.7757" fill="#9399FF"/>
<path d="M122.28 12.3364L134.421 33.3645H110.14L122.28 12.3364Z" fill="#434BC6"/>
<path d="M122.28 12.3364L134.421 33.3645H110.14L122.28 12.3364Z" fill="#9399FF"/>
<circle cx="120.037" cy="60" r="11.7757" fill="#434BC6"/>
<circle cx="120.037" cy="60" r="11.7757" fill="#9399FF"/>
<rect x="74.6167" y="35.8879" width="23.5514" height="23.5514" fill="#434BC6"/>
<rect x="74.6167" y="35.8879" width="23.5514" height="23.5514" fill="#9399FF"/>
<rect x="119.477" y="79.6262" width="23.5514" height="23.5514" fill="#434BC6"/>
<rect x="119.477" y="79.6262" width="23.5514" height="23.5514" fill="#9399FF"/>
<path d="M19.1027 79.6262L31.2432 100.654H6.96213L19.1027 79.6262Z" fill="#434BC6"/>
<path d="M19.1027 79.6262L31.2432 100.654H6.96213L19.1027 79.6262Z" fill="#9399FF"/>
<circle cx="4.52326" cy="24.1121" r="11.7757" fill="#434BC6"/>
<circle cx="4.52326" cy="24.1121" r="11.7757" fill="#9399FF"/>
<path d="M52.7475 21.3084L64.888 42.3364H40.6069L52.7475 21.3084Z" fill="#434BC6"/>
<path d="M52.7475 21.3084L64.888 42.3364H40.6069L52.7475 21.3084Z" fill="#9399FF"/>
<circle cx="50.5045" cy="68.972" r="11.7757" fill="#434BC6"/>
<circle cx="50.5045" cy="68.972" r="11.7757" fill="#9399FF"/>
<rect x="5.08398" y="44.8598" width="23.5514" height="23.5514" fill="#434BC6"/>
<rect x="5.08398" y="44.8598" width="23.5514" height="23.5514" fill="#9399FF"/>
<rect x="49.9438" y="88.5981" width="23.5514" height="23.5514" fill="#434BC6"/>
<rect x="49.9438" y="88.5981" width="23.5514" height="23.5514" fill="#9399FF"/>
<path d="M550.692 78.5046L562.832 99.5327H538.551L550.692 78.5046Z" fill="#434BC6"/>
<path d="M550.692 78.5046L562.832 99.5327H538.551L550.692 78.5046Z" fill="#9399FF"/>
<circle cx="536.112" cy="22.9907" r="11.7757" fill="#434BC6"/>
<circle cx="536.112" cy="22.9907" r="11.7757" fill="#9399FF"/>
<path d="M584.337 20.1869L596.477 41.2149H572.196L584.337 20.1869Z" fill="#434BC6"/>
<path d="M584.337 20.1869L596.477 41.2149H572.196L584.337 20.1869Z" fill="#9399FF"/>
<circle cx="582.094" cy="67.8505" r="11.7757" fill="#434BC6"/>
<circle cx="582.094" cy="67.8505" r="11.7757" fill="#9399FF"/>
<rect x="536.673" y="43.7383" width="23.5514" height="23.5514" fill="#434BC6"/>
<rect x="536.673" y="43.7383" width="23.5514" height="23.5514" fill="#9399FF"/>
<rect x="581.533" y="87.4766" width="23.5514" height="23.5514" fill="#434BC6"/>
<rect x="581.533" y="87.4766" width="23.5514" height="23.5514" fill="#9399FF"/>
<path d="M481.159 87.4766L493.3 108.505H469.019L481.159 87.4766Z" fill="#434BC6"/>
<path d="M481.159 87.4766L493.3 108.505H469.019L481.159 87.4766Z" fill="#9399FF"/>
<circle cx="466.58" cy="31.9626" r="11.7757" fill="#434BC6"/>
<circle cx="466.58" cy="31.9626" r="11.7757" fill="#9399FF"/>
<path d="M514.804 29.1589L526.945 50.1869H502.664L514.804 29.1589Z" fill="#434BC6"/>
<path d="M514.804 29.1589L526.945 50.1869H502.664L514.804 29.1589Z" fill="#9399FF"/>
<circle cx="512.561" cy="76.8225" r="11.7757" fill="#434BC6"/>
<circle cx="512.561" cy="76.8225" r="11.7757" fill="#9399FF"/>
<rect x="467.14" y="52.7103" width="23.5514" height="23.5514" fill="#434BC6"/>
<rect x="467.14" y="52.7103" width="23.5514" height="23.5514" fill="#9399FF"/>
<rect x="512" y="96.4486" width="23.5514" height="23.5514" fill="#434BC6"/>
<rect x="512" y="96.4486" width="23.5514" height="23.5514" fill="#9399FF"/>
<path d="M400.411 75.1402L412.552 96.1682H388.271L400.411 75.1402Z" fill="#434BC6"/>
<path d="M400.411 75.1402L412.552 96.1682H388.271L400.411 75.1402Z" fill="#9399FF"/>
<circle cx="385.832" cy="19.6262" r="11.7757" fill="#434BC6"/>
<circle cx="385.832" cy="19.6262" r="11.7757" fill="#9399FF"/>
<path d="M434.056 16.8224L446.197 37.8505H421.916L434.056 16.8224Z" fill="#434BC6"/>
<path d="M434.056 16.8224L446.197 37.8505H421.916L434.056 16.8224Z" fill="#9399FF"/>
<circle cx="431.813" cy="64.486" r="11.7757" fill="#434BC6"/>
<circle cx="431.813" cy="64.486" r="11.7757" fill="#9399FF"/>
<rect x="386.393" y="40.3738" width="23.5514" height="23.5514" fill="#434BC6"/>
<rect x="386.393" y="40.3738" width="23.5514" height="23.5514" fill="#9399FF"/>
<rect x="431.252" y="84.1122" width="23.5514" height="23.5514" fill="#434BC6"/>
<rect x="431.252" y="84.1122" width="23.5514" height="23.5514" fill="#9399FF"/>
<path d="M319.663 75.1402L331.804 96.1682H307.523L319.663 75.1402Z" fill="#434BC6"/>
<path d="M319.663 75.1402L331.804 96.1682H307.523L319.663 75.1402Z" fill="#9399FF"/>
<circle cx="305.084" cy="19.6262" r="11.7757" fill="#434BC6"/>
<circle cx="305.084" cy="19.6262" r="11.7757" fill="#9399FF"/>
<path d="M353.308 16.8224L365.449 37.8505H341.168L353.308 16.8224Z" fill="#434BC6"/>
<path d="M353.308 16.8224L365.449 37.8505H341.168L353.308 16.8224Z" fill="#9399FF"/>
<circle cx="351.065" cy="64.486" r="11.7757" fill="#434BC6"/>
<circle cx="351.065" cy="64.486" r="11.7757" fill="#9399FF"/>
<rect x="305.645" y="40.3738" width="23.5514" height="23.5514" fill="#434BC6"/>
<rect x="305.645" y="40.3738" width="23.5514" height="23.5514" fill="#9399FF"/>
<rect x="350.505" y="84.1122" width="23.5514" height="23.5514" fill="#434BC6"/>
<rect x="350.505" y="84.1122" width="23.5514" height="23.5514" fill="#9399FF"/>
<path d="M250.131 84.1122L262.271 105.14H237.99L250.131 84.1122Z" fill="#434BC6"/>
<path d="M250.131 84.1122L262.271 105.14H237.99L250.131 84.1122Z" fill="#9399FF"/>
<circle cx="235.551" cy="28.5981" r="11.7757" fill="#434BC6"/>
<circle cx="235.551" cy="28.5981" r="11.7757" fill="#9399FF"/>
<path d="M283.776 25.7944L295.916 46.8224H271.635L283.776 25.7944Z" fill="#434BC6"/>
<path d="M283.776 25.7944L295.916 46.8224H271.635L283.776 25.7944Z" fill="#9399FF"/>
<circle cx="281.533" cy="73.458" r="11.7757" fill="#434BC6"/>
<circle cx="281.533" cy="73.458" r="11.7757" fill="#9399FF"/>
<rect x="236.112" y="49.3458" width="23.5514" height="23.5514" fill="#434BC6"/>
<rect x="236.112" y="49.3458" width="23.5514" height="23.5514" fill="#9399FF"/>
<rect x="280.972" y="93.0841" width="23.5514" height="23.5514" fill="#434BC6"/>
<rect x="280.972" y="93.0841" width="23.5514" height="23.5514" fill="#9399FF"/>
<path d="M169.383 71.7757L181.524 92.8037H157.243L169.383 71.7757Z" fill="#434BC6"/>
<path d="M169.383 71.7757L181.524 92.8037H157.243L169.383 71.7757Z" fill="#9399FF"/>
<circle cx="154.804" cy="16.2617" r="11.7757" fill="#434BC6"/>
<circle cx="154.804" cy="16.2617" r="11.7757" fill="#9399FF"/>
<path d="M203.028 13.4579L215.169 34.486H190.887L203.028 13.4579Z" fill="#434BC6"/>
<path d="M203.028 13.4579L215.169 34.486H190.887L203.028 13.4579Z" fill="#9399FF"/>
<circle cx="200.785" cy="61.1215" r="11.7757" fill="#434BC6"/>
<circle cx="200.785" cy="61.1215" r="11.7757" fill="#9399FF"/>
<rect x="155.365" y="37.0093" width="23.5514" height="23.5514" fill="#434BC6"/>
<rect x="155.365" y="37.0093" width="23.5514" height="23.5514" fill="#9399FF"/>
<rect x="200.224" y="80.7477" width="23.5514" height="23.5514" fill="#434BC6"/>
<rect x="200.224" y="80.7477" width="23.5514" height="23.5514" fill="#9399FF"/>
</svg>
