<svg width="290" height="290" viewBox="0 0 290 290" fill="none" xmlns="http://www.w3.org/2000/svg">
<path d="M145 0C64.9196 0 0 64.9196 0 145C0 225.08 64.9196 290 145 290C149.368 290 153.72 289.804 158.051 289.415C162.077 289.054 166.068 288.501 170.028 287.81L171.55 287.541C245.176 273.801 296.226 206.25 289.339 131.668C282.453 57.0867 219.898 0.0236003 145 0V0ZM133.351 279.821H133.009C129.249 279.488 125.518 278.986 121.82 278.341C121.607 278.304 121.395 278.28 121.187 278.24C117.572 277.593 113.994 276.791 110.452 275.854L109.595 275.635C106.14 274.698 102.723 273.61 99.3548 272.401C99.0055 272.276 98.6538 272.165 98.3045 272.035C95.0029 270.822 91.7602 269.463 88.5671 267.993C88.1706 267.816 87.7741 267.646 87.3776 267.457C84.2459 266.008 81.1755 264.375 78.1641 262.657C77.7393 262.416 77.3097 262.175 76.8849 261.937C73.9207 260.207 71.025 258.352 68.1835 256.393C67.754 256.094 67.3197 255.803 66.8926 255.504C64.1007 253.523 61.3796 251.421 58.7293 249.221L58 248.584V207.833C58.0354 178.484 81.8174 154.702 111.167 154.667H178.833C208.183 154.702 231.965 178.484 232 207.833V248.589L231.358 249.124C228.656 251.381 225.883 253.514 223.034 255.529C222.657 255.794 222.274 256.046 221.899 256.306C219.025 258.302 216.079 260.181 213.063 261.946C212.686 262.166 212.299 262.374 211.923 262.591C208.867 264.33 205.759 265.973 202.589 267.452C202.226 267.622 201.86 267.78 201.492 267.936C198.273 269.421 195.002 270.787 191.677 272.01C191.346 272.132 191.013 272.238 190.709 272.354C187.325 273.567 183.893 274.665 180.419 275.606L179.586 275.814C176.039 276.751 172.459 277.558 168.839 278.207C168.631 278.245 168.423 278.271 168.216 278.304C164.513 278.95 160.777 279.453 157.015 279.788H156.673C152.807 280.121 148.939 280.3 145.024 280.3C141.108 280.3 137.21 280.154 133.351 279.821ZM241.667 239.628V207.833C241.627 173.148 213.519 145.04 178.833 145H111.167C76.4814 145.04 48.3735 173.148 48.3333 207.833V239.623C-3.72412 186.492 -3.14356 101.306 49.6314 48.8879C102.406 -3.52824 187.594 -3.52824 240.369 48.8879C293.144 101.306 293.724 186.492 241.667 239.623V239.628Z" fill="#3F3F3F"/>
<path d="M144.998 38.6667C118.304 38.6667 96.665 60.3058 96.665 87C96.665 113.694 118.304 135.333 144.998 135.333C171.693 135.333 193.332 113.694 193.332 87C193.303 60.3176 171.681 38.695 144.998 38.6667ZM144.998 125.667C123.642 125.667 106.332 108.356 106.332 87C106.332 65.6441 123.642 48.3334 144.998 48.3334C166.354 48.3334 183.665 65.6441 183.665 87C183.641 108.344 166.342 125.643 144.998 125.667Z" fill="#3F3F3F"/>
</svg>
