<svg width="114" height="114" viewBox="0 0 114 114" fill="none" xmlns="http://www.w3.org/2000/svg">
<path d="M57 0C25.5182 0 0 25.5182 0 57C0 88.4783 25.5182 114 57 114C88.4783 114 114 88.4783 114 57C114 25.5182 88.4783 0 57 0ZM57 106.875C29.4975 106.875 7.12511 84.5025 7.12511 57C7.12511 29.4975 29.4975 7.01466 57 7.01466C84.5025 7.01466 106.875 29.4975 106.875 57C106.875 84.5025 84.5025 106.875 57 106.875Z" fill="#747474"/>
<path d="M49.1907 29.4656C47.7977 28.0619 45.5427 28.0619 44.1533 29.4656C42.7603 30.8728 42.7603 33.1491 44.1533 34.5563L66.223 56.9465L44.1497 79.3366C42.7567 80.7403 42.7567 83.0201 44.1497 84.4273C45.5427 85.831 47.7977 85.831 49.1871 84.4273L73.7683 59.4934C75.1222 58.1218 75.1258 55.7741 73.7683 54.4027L49.1907 29.4656Z" fill="#747474"/>
</svg>
