<svg width="328" height="328" viewBox="0 0 328 328" fill="none" xmlns="http://www.w3.org/2000/svg">
<path d="M303.125 172.04C302.125 166.83 297.568 163.062 292.263 163.059H281.578L280.792 158.35C280.008 153.621 276.282 149.926 271.546 149.182C270.495 149.016 269.432 148.905 268.386 148.761C270.198 140.302 268.693 131.469 264.181 124.088C266.565 117.904 266.12 110.987 262.964 105.159C259.807 99.3321 254.256 95.1801 247.775 93.7985C243.631 71.6208 224.337 55.4998 201.776 55.3639C201.223 55.3639 200.73 55.4359 200.205 55.4525C196.6 49.791 190.656 46.0336 183.996 45.2052C177.335 44.3768 170.653 46.5638 165.771 51.1697C159.621 47.1719 152.444 45.0406 145.109 45.0332C133.29 45.0816 122.151 50.5673 114.908 59.9068C106.866 57.5616 98.1931 59.0016 91.3401 63.82C84.487 68.6385 80.1975 76.3123 79.6831 84.674C71.2355 88.225 65.7389 96.4929 65.7335 105.656C65.7509 107.245 65.9363 108.827 66.2869 110.376C58.8162 121.638 56.8641 135.684 60.9804 148.556C59.4975 148.761 57.9813 148.944 56.5537 149.154C51.7931 149.872 48.0336 153.569 47.2356 158.317L46.4499 163.043H35.7373C30.4411 163.046 25.8899 166.802 24.8809 172.001L0.650457 296.401C-0.295824 301.273 0.987384 306.313 4.14834 310.139C7.30929 313.965 12.0164 316.177 16.9793 316.167H132.371C136.953 323.725 150.875 327.233 164 327.233C176.987 327.233 190.776 323.808 195.49 316.167H311.021C315.982 316.176 320.688 313.966 323.849 310.141C327.01 306.316 328.294 301.278 327.35 296.407L303.125 172.04ZM82.4663 115.672C77.9736 112.97 75.8294 107.608 77.2212 102.554C78.613 97.4996 83.2001 93.9906 88.4423 93.97C92.1112 93.9591 95.5641 95.7031 97.7328 98.6623C98.911 100.25 100.847 101.088 102.81 100.861C104.774 100.635 106.468 99.3775 107.254 97.5635C108.039 95.7494 107.798 93.654 106.619 92.0665C102.862 87.0448 97.168 83.8323 90.9268 83.2132C92.5765 75.4639 99.4102 69.9163 107.333 69.8945C108.008 69.9287 108.681 70.0026 109.347 70.1158C108.902 71.2502 108.514 72.4063 108.185 73.5797C107.497 76.5087 109.275 79.4513 112.188 80.2037C115.101 80.9561 118.082 79.2426 118.898 76.3463C119.527 73.9144 120.494 71.5825 121.77 69.4186C126.678 61.1958 135.533 56.1427 145.109 56.0999C150.321 56.123 155.414 57.6609 159.767 60.5265C158.938 62.8567 158.498 65.3076 158.467 67.7807C158.467 70.8367 160.944 73.3141 164 73.3141C167.056 73.3141 169.533 70.8367 169.533 67.7807C169.533 61.3525 174.744 56.1414 181.173 56.1414C187.601 56.1414 192.812 61.3525 192.812 67.7807C192.812 70.8367 195.289 73.3141 198.345 73.3141C201.401 73.3141 203.879 70.8367 203.879 67.7807C203.879 67.3547 203.774 66.9507 203.751 66.5247C219.595 67.5022 232.918 78.7645 236.52 94.2245C233.939 94.976 231.514 96.1849 229.36 97.7935C227.778 98.9797 226.95 100.919 227.186 102.882C227.423 104.845 228.688 106.532 230.506 107.309C232.324 108.085 234.418 107.833 236 106.647C240.421 103.373 246.53 103.634 250.656 107.273C254.782 110.912 255.804 116.94 253.109 121.736C251.904 123.854 250.074 125.547 247.869 126.583C245.556 127.703 244.319 130.267 244.881 132.774C245.443 135.281 247.657 137.072 250.226 137.097C251.037 137.098 251.839 136.918 252.572 136.571C254.039 135.86 255.424 134.994 256.705 133.987C259.566 142.119 257.772 151.163 252.024 157.587L251.891 157.725C244.683 165.534 233.183 167.645 223.671 162.904C222.74 162.412 221.845 161.854 220.993 161.233C225.069 155.519 225.632 148.014 222.454 141.756C221.565 139.99 219.8 138.832 217.826 138.719C215.851 138.606 213.967 139.556 212.882 141.209C211.797 142.863 211.676 144.97 212.566 146.736C214.386 150.393 213.251 154.831 209.899 157.166C207.931 158.477 205.499 158.891 203.208 158.307C200.917 157.722 198.981 156.194 197.881 154.101C196.996 152.332 195.235 151.17 193.261 151.052C191.288 150.934 189.401 151.878 188.312 153.529C187.223 155.179 187.097 157.285 187.981 159.053C191.227 165.604 197.913 169.741 205.223 169.721C207.603 169.705 209.959 169.242 212.168 168.355C214.144 170.085 216.321 171.571 218.653 172.781C226.539 176.869 235.709 177.717 244.211 175.144C238.743 182.61 230.559 187.628 221.425 189.116C218.583 189.578 216.571 192.143 216.798 195.013C217.025 197.883 219.415 200.1 222.294 200.11C222.588 200.11 222.882 200.088 223.173 200.044C226.543 199.461 229.836 198.499 232.99 197.178C234.694 200.191 236.078 203.376 237.117 206.678C237.308 207.255 237.405 207.858 237.405 208.466C237.404 210.857 235.975 213.017 233.775 213.955C231.23 214.939 228.34 214.163 226.632 212.035C222.346 207.003 216.735 203.274 210.436 201.272C198.478 197.266 193.863 193.686 191.905 189.791C194.776 189.433 197.613 188.84 200.387 188.02C202.277 187.439 203.713 185.894 204.155 183.966C204.597 182.039 203.976 180.023 202.528 178.676C201.08 177.33 199.023 176.859 197.134 177.44C194.029 178.393 190.824 178.982 187.583 179.194C181.34 179.682 175.067 178.736 169.246 176.428C167.06 175.575 164.574 176.194 163.043 177.972C154.986 187.226 141.198 188.799 131.264 181.597C121.331 174.395 118.539 160.8 124.83 150.266C125.849 148.565 125.883 146.45 124.919 144.716C123.955 142.983 122.14 141.896 120.158 141.864C118.175 141.832 116.326 142.86 115.307 144.561C113.986 146.808 112.925 149.197 112.142 151.683C107.784 151.453 104.348 147.889 104.279 143.527V143.388C104.276 141.928 103.69 140.53 102.651 139.504C101.611 138.478 100.205 137.911 98.7454 137.927C95.6762 137.957 93.2058 140.457 93.2121 143.527C93.2367 153.34 100.637 161.565 110.393 162.622C110.413 164.477 110.581 166.327 110.897 168.155C98.5418 170.829 85.7276 166.388 77.6766 156.643C69.6256 146.897 67.6825 133.475 72.6391 121.847C73.8771 123.099 75.2589 124.201 76.7559 125.128C79.3699 126.659 82.7291 125.804 84.2924 123.209C85.8557 120.614 85.0417 117.245 82.4663 115.65V115.672ZM58.1197 160.121C60.6705 159.745 63.3044 159.413 65.9217 159.07C76.1524 175.419 95.7194 183.357 114.449 178.757C119.482 188.309 128.677 194.97 139.322 196.774C149.966 198.578 160.843 195.319 168.742 187.959C172.502 189.081 176.375 189.782 180.29 190.051C182.963 200.188 190.687 206.33 206.917 211.769C211.292 213.141 215.195 215.711 218.182 219.189C221.504 223.139 226.39 225.435 231.551 225.47C233.808 225.469 236.042 225.014 238.119 224.131C244.391 221.45 248.46 215.287 248.461 208.466C248.466 206.687 248.182 204.919 247.62 203.231C246.375 199.322 244.736 195.549 242.728 191.971C252.138 185.207 258.692 175.183 261.116 163.85C262.294 162.45 263.36 160.959 264.303 159.391C266.156 159.629 268.01 159.839 269.875 160.149L289.85 280.299C250.804 267.261 208.579 267.261 169.533 280.299V211.033C169.533 207.977 167.056 205.5 164 205.5C160.944 205.5 158.467 207.977 158.467 211.033V280.322C119.425 267.271 77.201 267.256 38.1499 280.277L58.1197 160.121ZM12.6689 303.064C11.6233 301.801 11.1971 300.136 11.5069 298.526L35.7373 174.126H44.5907L27.2271 278.479C26.6163 282.277 28.0149 286.121 30.9237 288.639C33.8325 291.157 37.8371 291.99 41.5086 290.84C71.0068 281.284 102.433 279.29 132.903 285.042L131.254 305.1H16.9793C15.31 305.101 13.7281 304.354 12.6689 303.064ZM164 316.167C150.67 316.167 143.023 312.227 141.9 310.473L143.803 287.509C149.888 289.024 155.842 291.021 161.61 293.48C162.356 293.839 163.172 294.028 164 294.033C164.83 294.032 165.649 293.843 166.396 293.48C172.16 291.006 178.113 288.997 184.197 287.471L186.1 310.467C184.977 312.227 177.33 316.167 164 316.167ZM315.331 303.064C314.272 304.354 312.69 305.101 311.021 305.1H196.763L195.103 285.003C225.589 279.263 257.029 281.274 286.536 290.852C290.206 291.985 294.202 291.141 297.1 288.618C299.998 286.096 301.385 282.254 300.767 278.462L283.42 174.131H292.274L316.51 298.521C316.817 300.135 316.384 301.802 315.331 303.064Z" fill="black"/>
<path d="M145.663 126.29C143.397 128.34 143.222 131.837 145.27 134.103C149.964 139.286 156.167 142.863 163.004 144.329C159.908 148.692 154.886 151.281 149.536 151.273C146.48 151.273 144.003 153.751 144.003 156.807C144.003 159.863 146.48 162.34 149.536 162.34C160.991 162.386 171.269 155.311 175.316 144.595C189.075 142.314 199.967 131.724 202.634 118.035C203.046 116.077 202.369 114.049 200.863 112.731C199.357 111.413 197.257 111.011 195.371 111.68C193.485 112.348 192.107 113.982 191.766 115.954C190.681 121.661 187.388 126.71 182.603 130.003C173.397 136.203 161.05 134.796 153.476 126.683C151.426 124.418 147.929 124.242 145.663 126.29Z" fill="black"/>
<path d="M126.373 120.286C129.429 120.286 131.907 117.809 131.907 114.753C131.907 110.938 133.422 107.278 136.12 104.58C138.818 101.882 142.478 100.366 146.293 100.366C149.349 100.366 151.827 97.8891 151.827 94.8331C151.827 91.7772 149.349 89.2998 146.293 89.2998C132.242 89.3151 120.855 100.702 120.84 114.753C120.84 116.221 121.423 117.628 122.461 118.666C123.498 119.703 124.906 120.286 126.373 120.286Z" fill="black"/>
<path d="M169.533 11.8333V6.29993C169.533 3.24396 167.056 0.766602 164 0.766602C160.944 0.766602 158.467 3.24396 158.467 6.29993V11.8333C158.467 14.8892 160.944 17.3666 164 17.3666C167.056 17.3666 169.533 14.8892 169.533 11.8333Z" fill="black"/>
<path d="M254.802 40.4738L249.269 46.0072C247.83 47.3964 247.253 49.4537 247.76 51.3884C248.266 53.323 249.777 54.8338 251.712 55.3402C253.646 55.8466 255.704 55.2697 257.093 53.8313L262.626 48.298C264.065 46.9087 264.641 44.8514 264.135 42.9167C263.629 40.9821 262.118 39.4713 260.183 38.9649C258.249 38.4585 256.191 39.0354 254.802 40.4738Z" fill="black"/>
<path d="M74.8193 55.4526C77.0569 55.4521 79.074 54.1039 79.9303 52.0366C80.7865 49.9692 80.3134 47.5897 78.7313 46.0072L73.198 40.4738C71.8087 39.0354 69.7514 38.4585 67.8168 38.9649C65.8822 39.4713 64.3713 40.9821 63.8649 42.9167C63.3586 44.8514 63.9354 46.9087 65.3739 48.298L70.9072 53.8313C71.9447 54.8691 73.3519 55.4522 74.8193 55.4526Z" fill="black"/>
<path d="M117.415 32.1682C118.142 32.1667 118.862 32.0238 119.534 31.7477C120.89 31.1859 121.968 30.1082 122.529 28.7518C123.091 27.3955 123.09 25.8716 122.528 24.5156L116.17 9.17721C115.442 7.30903 113.76 5.98101 111.773 5.70597C109.787 5.43093 107.808 6.25191 106.599 7.85189C105.391 9.45186 105.142 11.5805 105.95 13.4157L112.302 28.7541C113.159 30.8213 115.177 32.1688 117.415 32.1682Z" fill="black"/>
<path d="M219.057 6.18366C216.234 5.01615 213 6.35599 211.83 9.1772L205.472 24.5156C204.908 25.8722 204.907 27.3975 205.468 28.7552C206.03 30.1128 207.108 31.1915 208.466 31.7532C209.138 32.0294 209.858 32.1722 210.585 32.1737C212.823 32.1743 214.841 30.8269 215.698 28.7597L222.05 13.4213C222.614 12.0647 222.616 10.5394 222.054 9.18171C221.493 7.82402 220.414 6.74541 219.057 6.18366Z" fill="black"/>
<path d="M276.465 98.0537C277.193 98.0523 277.913 97.9075 278.584 97.6276L293.917 91.2753C295.744 90.5192 297.028 88.846 297.287 86.886C297.545 84.926 296.738 82.977 295.17 81.7732C293.602 80.5693 291.511 80.2936 289.684 81.0497L274.346 87.402C271.898 88.4074 270.505 91.0049 271.021 93.6001C271.538 96.1953 273.819 98.0617 276.465 98.0537Z" fill="black"/>
<path d="M49.4157 97.6275C52.2394 98.798 55.4774 97.4577 56.6478 94.634C57.8182 91.8103 56.478 88.5724 53.6543 87.4019L38.3159 81.0497C35.4921 79.8807 32.2555 81.2222 31.0866 84.046C29.9176 86.8697 31.2591 90.1063 34.0829 91.2753L49.4157 97.6275Z" fill="black"/>
</svg>
