<svg width="13" height="13" viewBox="0 0 13 13" fill="none" xmlns="http://www.w3.org/2000/svg">
<path d="M6.49998 0C2.91584 0 0 2.91584 0 6.49998C0 10.0841 2.91584 13 6.49998 13C10.0841 13 13 10.0841 13 6.49998C13 2.91584 10.0841 0 6.49998 0ZM6.49998 12.1544C3.38217 12.1544 0.845635 9.61783 0.845635 6.49998C0.845635 3.38212 3.38217 0.845635 6.49998 0.845635C9.61779 0.845635 12.1543 3.38217 12.1543 6.49998C12.1543 9.61779 9.61783 12.1544 6.49998 12.1544Z" fill="#767676"/>
<path d="M9.15156 7.55901C8.95481 7.43324 8.69337 7.4907 8.56751 7.68736C8.15907 8.32595 7.46335 8.70719 6.70646 8.70719C5.4893 8.70719 4.49911 7.71695 4.49911 6.4998C4.49911 5.28265 5.4893 4.29241 6.70646 4.29241C7.44089 4.29241 8.12524 4.65636 8.53716 5.26597C8.66786 5.45939 8.93062 5.51032 9.12422 5.37957C9.31768 5.24887 9.36856 4.98602 9.23782 4.79251C8.66852 3.94984 7.72216 3.44678 6.70646 3.44678C5.02303 3.44678 3.65348 4.81633 3.65348 6.4998C3.65348 8.18328 5.02303 9.55283 6.70646 9.55283C7.75321 9.55283 8.71526 9.02581 9.27991 8.14301C9.40572 7.94631 9.34827 7.68487 9.15156 7.55901Z" fill="#767676"/>
</svg>
