<svg width="45" height="45" viewBox="0 0 45 45" fill="none" xmlns="http://www.w3.org/2000/svg">
<path d="M6.59628 0H1.32434C0.596514 0 0.00641632 0.590098 0.00641632 1.31801V6.67784C0.00641632 7.40575 0.596426 7.99585 1.32442 7.99585C2.05233 7.99585 2.64243 7.40575 2.64243 6.67784V2.63602H6.59637C7.32428 2.63602 7.91437 2.04592 7.91437 1.31801C7.91429 0.590098 7.32419 0 6.59628 0Z" fill="white"/>
<path d="M43.6757 0H38.4037C37.6758 0 37.0857 0.590098 37.0857 1.31801C37.0857 2.04592 37.6757 2.63602 38.4037 2.63602H42.3577V6.67784C42.3577 7.40575 42.9478 7.99585 43.6757 7.99585C44.4036 7.99585 44.9937 7.40575 44.9937 6.67784V1.31801C44.9937 0.590098 44.4036 0 43.6757 0Z" fill="white"/>
<path d="M6.59628 42.3513H2.64234V38.3095C2.64234 37.5816 2.05225 36.9915 1.32434 36.9915C0.596426 36.9915 0.00632858 37.5816 0.00632858 38.3095V43.6693C0.00632858 44.3972 0.596338 44.9873 1.32434 44.9873H6.59628C7.32419 44.9873 7.91429 44.3972 7.91429 43.6693C7.91429 42.9414 7.32419 42.3513 6.59628 42.3513Z" fill="white"/>
<path d="M43.6757 36.9915C42.9478 36.9915 42.3577 37.5816 42.3577 38.3095V42.3513H38.4037C37.6758 42.3513 37.0857 42.9414 37.0857 43.6693C37.0857 44.3972 37.6758 44.9873 38.4037 44.9873H43.6757C44.4036 44.9873 44.9937 44.3972 44.9937 43.6693V38.3095C44.9937 37.5816 44.4036 36.9915 43.6757 36.9915Z" fill="white"/>
<path d="M41.5169 10.8126L23.1607 0.177644C22.7521 -0.0591333 22.2478 -0.0591333 21.8392 0.177644L3.47554 10.8125C3.07072 11.0471 2.81804 11.4838 2.81804 11.9521C2.81804 11.9547 2.8183 11.9574 2.8183 11.9599V33.047C2.8183 33.5197 3.0752 33.9622 3.4889 34.1951L21.8393 44.8225C22.037 44.937 22.2722 45 22.5001 45C22.738 45 22.9705 44.9327 23.1608 44.8225L41.5038 34.195C41.5069 34.1932 41.5099 34.1915 41.5129 34.1897C41.9381 33.883 42.1672 33.6252 42.1736 33.0629C42.1737 33.0576 42.1741 33.0524 42.1741 33.0472V11.9601C42.1741 11.9574 42.1744 11.9548 42.1744 11.9523C42.1744 11.4835 41.9215 11.0467 41.5169 10.8126ZM21.182 41.3953L6.78322 33.053L17.8837 26.6871C18.5152 26.325 18.7335 25.5196 18.3713 24.8882C18.0093 24.2567 17.2039 24.0385 16.5724 24.4006L5.45405 30.7719V14.2303L21.182 23.2628V41.3953ZM22.5 20.98L6.78129 11.9483L22.5 2.84126L38.2187 11.9483L22.5 20.98ZM39.5467 30.7719L28.4276 24.4005C27.7962 24.0385 26.9908 24.2566 26.6287 24.8881C26.2665 25.5196 26.4848 26.3249 27.1163 26.687L38.2168 33.0528L23.8179 41.3951V23.2628L39.5466 14.2303V30.7719H39.5467Z" fill="white"/>
</svg>
