<svg width="45" height="45" viewBox="0 0 45 45" fill="none" xmlns="http://www.w3.org/2000/svg">
<path d="M6.59633 0H1.32439C0.596567 0 0.00646973 0.590098 0.00646973 1.31801V6.67784C0.00646973 7.40575 0.596479 7.99585 1.32448 7.99585C2.05239 7.99585 2.64249 7.40575 2.64249 6.67784V2.63602H6.59642C7.32433 2.63602 7.91443 2.04592 7.91443 1.31801C7.91434 0.590098 7.32424 0 6.59633 0Z" fill="black"/>
<path d="M43.6756 0H38.4037C37.6758 0 37.0857 0.590098 37.0857 1.31801C37.0857 2.04592 37.6757 2.63602 38.4037 2.63602H42.3576V6.67784C42.3576 7.40575 42.9477 7.99585 43.6756 7.99585C44.4036 7.99585 44.9937 7.40575 44.9937 6.67784V1.31801C44.9937 0.590098 44.4036 0 43.6756 0Z" fill="black"/>
<path d="M6.5963 42.3513H2.64236V38.3095C2.64236 37.5816 2.05227 36.9915 1.32436 36.9915C0.596445 36.9915 0.00634766 37.5816 0.00634766 38.3095V43.6693C0.00634766 44.3972 0.596357 44.9873 1.32436 44.9873H6.5963C7.32421 44.9873 7.91431 44.3972 7.91431 43.6693C7.91431 42.9414 7.32421 42.3513 6.5963 42.3513Z" fill="black"/>
<path d="M43.6756 36.9915C42.9477 36.9915 42.3576 37.5816 42.3576 38.3095V42.3513H38.4037C37.6758 42.3513 37.0857 42.9414 37.0857 43.6693C37.0857 44.3972 37.6758 44.9873 38.4037 44.9873H43.6756C44.4036 44.9873 44.9937 44.3972 44.9937 43.6693V38.3095C44.9937 37.5816 44.4036 36.9915 43.6756 36.9915Z" fill="black"/>
<path d="M41.5168 10.8125L23.1606 0.177583C22.752 -0.0591943 22.2478 -0.0591943 21.8392 0.177583L3.4755 10.8124C3.07068 11.047 2.81799 11.4837 2.81799 11.952C2.81799 11.9547 2.81826 11.9573 2.81826 11.9598V33.0469C2.81826 33.5197 3.07516 33.9621 3.48886 34.195L21.8393 44.8224C22.0369 44.9369 22.2721 45 22.5 45C22.738 45 22.9704 44.9326 23.1608 44.8224L41.5038 34.1949C41.5068 34.1932 41.5098 34.1914 41.5129 34.1897C41.938 33.8829 42.1672 33.6251 42.1736 33.0628C42.1737 33.0576 42.1741 33.0524 42.1741 33.0471V11.96C42.1741 11.9574 42.1744 11.9548 42.1744 11.9522C42.1744 11.4835 41.9215 11.0467 41.5168 10.8125ZM21.1819 41.3952L6.78318 33.0529L17.8837 26.6871C18.5152 26.325 18.7335 25.5195 18.3713 24.8881C18.0093 24.2566 17.2038 24.0384 16.5723 24.4005L5.45401 30.7719V14.2302L21.1819 23.2628V41.3952ZM22.5 20.98L6.78124 11.9482L22.5 2.8412L38.2187 11.9482L22.5 20.98ZM39.5467 30.7719L28.4276 24.4004C27.7962 24.0384 26.9907 24.2565 26.6286 24.888C26.2664 25.5195 26.4847 26.3249 27.1162 26.687L38.2167 33.0527L23.8179 41.395V23.2628L39.5466 14.2302V30.7719H39.5467Z" fill="black"/>
</svg>
