<svg width="179" height="179" viewBox="0 0 179 179" fill="none" xmlns="http://www.w3.org/2000/svg">
<g clip-path="url(#clip0)">
<path d="M78.8683 21.1853C78.6273 20.7874 78.348 20.4125 78.0764 20.0491C77.1698 18.8594 76.091 17.8724 74.8783 17.0729C72.8241 15.7264 70.3529 14.9421 67.8472 14.9421C65.77 14.9421 64.7027 15.1946 63.2108 15.799C61.6806 16.4073 60.0471 17.2451 58.5743 18.802C57.113 20.3398 56.2408 21.9159 55.6287 23.5494C54.397 26.8393 54.5423 31.1582 56.696 34.6164C61.1948 41.8847 63.8534 50.1247 64.8289 58.6095C65.0929 60.8704 65.2574 63.1427 65.2574 65.438C65.2574 76.3596 62.2774 87.0402 56.6463 96.3169C56.4474 96.6459 56.2714 96.9749 56.1069 97.3115C55.009 99.5226 54.6112 101.914 54.8331 104.243C55.2079 108.187 57.354 111.917 60.992 114.128C61.9331 114.687 62.9239 115.115 63.9567 115.436C65.177 115.811 66.4356 116.01 67.7133 116.01C72.2809 116.01 76.4353 113.681 78.8071 109.779C85.9377 98.0269 90.1074 84.7258 90.9987 71.0116C91.1212 69.1601 91.1785 67.3009 91.1785 65.4341C91.1785 49.8034 86.9247 34.5016 78.8683 21.1853Z" fill="black"/>
<path d="M38.9362 153.014C33.8369 153.014 30.2524 156.77 30.2524 161.166C30.2524 164.919 33.0986 169.065 38.4274 169.065C43.894 169.065 46.9428 164.888 46.9428 160.921C46.9428 156.866 43.8557 153.014 38.9362 153.014ZM42.6239 166.365C41.8474 167.432 40.5084 168.075 39.204 168.075C35.1452 168.075 33.5002 162.604 33.5002 159.295C33.5002 157.853 33.7374 156.373 35.0457 155.194C35.8529 154.49 36.9584 154.058 38.064 154.058C42.2146 154.058 43.63 159.693 43.63 162.642C43.63 163.947 43.4234 165.286 42.6239 166.365Z" fill="black"/>
<path d="M62.9943 57.99C55.5767 47.757 45.2366 38.794 33.5384 32.5279C31.7519 31.5754 29.7512 31.0742 27.739 31.0742C23.1753 31.0742 19.017 33.5608 16.8671 37.5736C13.6576 43.5719 15.9222 51.0392 21.909 54.2487C39.9613 63.9041 51.6059 82.3275 52.9869 103.616V103.601C52.7803 101.225 53.1667 98.8993 54.2608 96.6958C54.41 96.3821 54.5898 96.0531 54.8002 95.7012C60.4389 86.4245 63.4112 75.7439 63.4112 64.8146C63.4112 62.5232 63.2506 60.2509 62.9943 57.99Z" fill="black"/>
<path d="M22.62 161.265L20.1029 162.627L24.8502 162.375V167.432C23.9168 167.81 22.8763 168.216 20.8641 168.216C14.0128 168.216 9.74358 162.65 9.74358 156.747C9.74358 151.246 13.481 147.474 18.4388 147.474C22.1495 147.474 24.1043 149.387 25.1716 150.432L24.3835 151.679L25.4814 151.434L28.0942 148.955C27.4018 148.477 26.2963 147.662 23.9436 147.004C22.4632 146.595 20.8297 146.346 19.135 146.346C11.1169 146.346 6.43457 152.004 6.43457 158.098C6.43457 163.09 9.73975 169.471 18.4082 169.471C20.1373 169.471 21.7669 169.226 23.5917 168.931L28.0904 167.898V164.058C28.0904 163.744 28.1172 162.834 28.1439 162.551C28.2128 162.302 28.2434 162.237 28.4615 162.046L29.2763 161.265H22.62Z" fill="black"/>
<path d="M77.7093 167.968L76.5043 167.034C76.1332 166.736 75.6283 166.326 75.6283 165.6C75.6283 164.854 76.1371 164.383 76.5693 163.951C77.9733 162.845 79.381 161.671 79.381 159.192C79.381 156.637 77.7744 155.298 77.0093 154.655H79.0827L81.2249 153.469H74.32C72.5067 153.469 70.2344 153.729 68.3217 155.305C66.8757 156.541 66.1718 158.266 66.1718 159.804C66.1718 162.421 68.1878 165.064 71.7416 165.064C72.0745 165.064 72.4417 165.026 72.8128 164.991C72.6483 165.401 72.4761 165.73 72.4761 166.303C72.4761 167.344 73.0155 167.979 73.4822 168.583C71.975 168.679 69.1633 168.851 67.0823 170.121C65.1045 171.292 64.5039 173.006 64.5039 174.203C64.5039 176.69 66.8489 179 71.711 179C77.476 179 80.521 175.817 80.521 172.669C80.521 170.358 79.1821 169.211 77.7093 167.968ZM73.3177 164.123C70.4372 164.123 69.125 160.401 69.125 158.151C69.125 157.291 69.301 156.38 69.8633 155.665C70.3951 154.999 71.3361 154.559 72.2083 154.559C74.9971 154.559 76.4355 158.316 76.4355 160.73C76.4355 161.327 76.3704 162.405 75.6053 163.186C75.0659 163.717 74.1555 164.123 73.3177 164.123ZM73.3521 177.573C69.7677 177.573 67.4533 175.871 67.4533 173.495C67.4533 171.112 69.5994 170.313 70.3415 170.041C71.7455 169.578 73.5511 169.505 73.8571 169.505C74.1899 169.505 74.3582 169.505 74.6222 169.536C77.1699 171.353 78.2831 172.256 78.2831 173.958C78.2831 176.035 76.5693 177.573 73.3521 177.573Z" fill="black"/>
<path d="M56.7615 153.014C51.6698 153.014 48.0815 156.77 48.0815 161.166C48.0815 164.919 50.9277 169.065 56.2603 169.065C61.7231 169.065 64.7796 164.888 64.7796 160.921C64.7796 156.866 61.6886 153.014 56.7615 153.014ZM60.4492 166.365C59.6765 167.432 58.3414 168.075 57.0369 168.075C52.9781 168.075 51.3293 162.604 51.3293 159.295C51.3293 157.853 51.5703 156.373 52.8748 155.194C53.682 154.49 54.7799 154.058 55.8893 154.058C60.0475 154.058 61.4553 159.693 61.4553 162.642C61.4553 163.947 61.2564 165.286 60.4492 166.365Z" fill="black"/>
<path d="M145.31 147.004H143.592V168.637H145.31V147.004Z" fill="black"/>
<path d="M140.895 35.4274C138.722 25.8982 135.49 16.5948 131.289 7.76564C129.036 3.04888 124.212 0 118.983 0C116.971 0 114.989 0.443751 113.153 1.31978C106.378 4.54462 103.494 12.7043 106.703 19.46C113.624 34.0388 117.028 49.44 117.028 65.438C117.028 81.4322 113.601 96.8181 106.814 111.156C106.715 111.374 105.529 113.914 105.529 116.84C105.521 117.663 105.609 118.895 105.873 119.993C106.753 123.849 109.274 127.345 113.298 129.273C115.146 130.149 117.089 130.581 119.117 130.581C124.082 130.581 128.68 127.839 131.052 123.52C133.764 118.424 136.511 111.73 138.898 103.115C139.652 100.513 140.287 98.0805 140.887 95.4409C143.106 85.7128 144.265 75.6787 144.265 65.4303C144.254 55.3082 143.106 45.1364 140.895 35.4274Z" fill="black"/>
<path d="M164.562 160.791C164.562 156.372 162.998 153.105 159.069 153.105C155.343 153.105 153.518 156.059 153.518 160.921C153.518 166.341 155.66 168.973 159.256 168.973C162.022 168.973 164.13 167.298 164.562 163.637L162.81 163.392C162.454 166.238 161.108 167.336 159.256 167.336C156.873 167.336 155.312 165.523 155.312 161.353H164.562V160.791ZM162.73 159.789H155.32C155.45 156.694 156.735 154.708 159.088 154.708C161.502 154.708 162.63 156.912 162.73 159.727V159.789Z" fill="black"/>
<path d="M150.699 147.004H148.974V168.637H150.699V147.004Z" fill="black"/>
<path d="M171.027 167.16C169.811 167.16 169.524 166.755 169.524 165.313V155.03H172.561V153.465H169.528V147.869L167.768 148.561V153.462H165.787V155.026H167.768V165.531C167.768 167.688 168.487 168.817 170.741 168.817C171.494 168.817 172.175 168.698 172.565 168.541V166.816C172.164 167.038 171.624 167.16 171.027 167.16Z" fill="black"/>
<path d="M140.122 165.653L140.118 157.903C140.118 154.54 138.24 153.098 134.889 153.098C132.039 153.098 130.084 154.773 129.74 157.245L131.431 157.486C131.722 155.73 132.877 154.666 134.828 154.666C137.33 154.666 138.428 155.619 138.428 158.09V159.72C137.617 159.345 136.358 159.069 134.828 159.069C131.653 159.069 129.426 160.791 129.426 163.897C129.426 167.29 131.634 168.977 134.426 168.977C136.018 168.977 137.716 168.086 138.435 167.034C138.435 167.466 138.5 168.224 138.657 168.633H140.405C140.218 167.879 140.122 166.977 140.122 165.653ZM138.435 164.777C137.804 166.124 136.236 167.378 134.522 167.378C132.571 167.378 131.167 166.25 131.167 163.905C131.167 161.678 132.663 160.611 134.797 160.611C136.396 160.611 137.582 160.959 138.435 161.357V164.777Z" fill="black"/>
<path d="M87.5267 167.73C86.4211 167.631 86.1878 167.432 86.1878 166.116V158.385C86.1878 153.622 86.2222 149.529 86.4976 146.95C86.6277 145.772 86.9643 145.562 88.001 144.965H83.2116L80.6982 146.174H83.3034C83.2766 147.719 83.1465 149.858 83.1121 151.575C83.0088 155.049 82.9706 158.771 82.9706 161.392V166.862C82.9706 167.528 82.8367 167.623 82.0716 168.633H88.001L89.2404 167.902C88.6743 167.834 88.0928 167.811 87.5267 167.73Z" fill="black"/>
<path d="M98.7228 167.394C95.5362 167.394 92.6595 164.911 91.795 160.653L94.3657 160.447L102.25 157.264C102.028 156.491 101.588 155.049 99.9125 153.943C98.9141 153.308 97.6594 153.002 96.462 153.002C93.0153 153.002 88.792 155.55 88.792 160.745C88.792 163.266 89.821 166.15 92.2119 167.826C93.9143 169.054 95.5898 169.126 96.6647 169.126C97.6747 169.126 98.8108 168.996 99.9164 168.491C100.284 168.327 100.666 168.094 101.03 167.898L102.808 166.219C101.672 166.797 100.425 167.394 98.7228 167.394ZM91.6955 158.798C91.6955 155.164 94.205 154.123 95.5439 154.123C97.3572 154.123 98.8606 155.665 98.8606 157.007C98.8606 157.486 98.5239 157.681 97.8889 157.914L91.7911 160.565C91.7491 159.957 91.684 159.356 91.6955 158.798Z" fill="black"/>
<path d="M114.274 53.3915C105.399 39.1953 92.5336 26.5025 77.4805 17.1837C77.5685 17.2411 77.6564 17.2985 77.6679 17.31C78.7123 18.0636 79.5921 18.8516 80.514 20.049C80.7397 20.3397 81.0534 20.7567 81.3136 21.1851C89.3699 34.5015 93.6315 49.8032 93.6315 65.434C93.6315 67.2931 93.5665 69.16 93.4517 71.0115C99.909 83.3141 103.436 97.2961 103.436 111.963C103.436 113.13 103.451 115.004 103.428 116.37C103.497 114.84 103.876 113.225 104.431 111.806C104.515 111.58 104.607 111.366 104.706 111.156C111.485 96.8179 114.92 81.432 114.92 65.4378C114.924 59.9368 114.553 55.9278 114.274 53.3915Z" fill="black"/>
<path d="M125.52 153.458L122.724 167.065L119.721 153.45H117.299L114.319 167.065L111.466 153.458H109.587L113.065 168.633H115.456L118.527 155.087L121.534 168.633H123.921L127.372 153.458H125.52Z" fill="black"/>
</g>
<defs>
<clipPath id="clip0">
<rect width="179" height="179" fill="white"/>
</clipPath>
</defs>
</svg>
