<svg width="332" height="332" viewBox="0 0 332 332" fill="none" xmlns="http://www.w3.org/2000/svg">
<g clip-path="url(#clip0)">
<path d="M330.767 217.85C330.48 217.497 330.152 217.18 329.788 216.907C314.619 205.588 294.018 204.873 278.101 215.114L208.635 260.067H189.667L152.776 237.934H177.067C195.396 237.916 210.25 223.062 210.268 204.734C210.268 201.678 207.79 199.2 204.734 199.2L166.554 199.228L111.22 193.695C110.289 193.605 109.349 193.75 108.487 194.115L70.827 210.267H0V221.334H71.9336C72.6834 221.335 73.4256 221.183 74.1138 220.885L111.536 204.839L166.001 210.267H198.504C195.966 220.032 187.157 226.854 177.067 226.867H132.801C129.745 226.868 127.268 229.346 127.269 232.402C127.27 234.343 128.287 236.142 129.951 237.142L185.284 270.343C186.145 270.86 187.13 271.134 188.134 271.134H210.268C211.333 271.135 212.376 270.827 213.272 270.249L284.099 224.41C293.89 218.113 306.208 217.211 316.812 222.014L208.309 309.867H178.052L73.8482 271.477C73.2354 271.251 72.5873 271.135 71.9336 271.134H0V282.201H70.9487L175.153 320.591C175.766 320.818 176.414 320.933 177.067 320.934H210.268C211.535 320.933 212.763 320.498 213.748 319.7L329.949 225.633C332.324 223.71 332.69 220.226 330.767 217.85Z" fill="black"/>
<path d="M265.601 77.4662V38.7327C265.601 16.8925 202.997 11.0659 166.001 11.0659C129.005 11.0659 66.4003 16.8925 66.4003 38.7327V77.4662C66.6742 82.0035 69.1275 86.128 72.985 88.5329C69.1137 90.924 66.6548 95.056 66.4003 99.5996V138.333C66.4003 160.173 129.005 166 166.001 166C202.997 166 265.601 160.173 265.601 138.333V99.5996C265.347 95.056 262.888 90.924 259.016 88.5329C262.874 86.128 265.327 82.0035 265.601 77.4662ZM254.534 138.333C253.489 143.949 221.29 154.933 166.001 154.933C110.711 154.933 78.5128 143.949 77.467 138.333V113.505C97.1049 124.057 138.577 127.266 166.001 127.266C193.424 127.266 234.902 124.057 254.534 113.505V138.333ZM166.001 116.2C110.711 116.2 78.5349 105.222 77.467 99.6328C77.467 99.5775 78.2527 97.4693 84.5718 94.5643C105.931 102.582 141.554 105.133 166.001 105.133C190.447 105.133 226.071 102.582 247.43 94.5532C253.743 97.4582 254.534 99.5996 254.534 99.5996C253.489 105.244 221.29 116.2 166.001 116.2ZM254.534 77.4662C253.489 83.1102 221.29 94.0663 166.001 94.0663C110.711 94.0663 78.5128 83.0826 77.467 77.4662V52.638C97.1049 63.1901 138.577 66.3995 166.001 66.3995C193.424 66.3995 234.902 63.1901 254.534 52.638V77.4662ZM166.001 55.3328C110.805 55.3328 78.5349 44.3546 77.467 38.7659C78.5349 33.1108 110.728 22.1326 166.001 22.1326C221.196 22.1326 253.383 33.0831 254.534 38.7327C253.383 44.3823 221.196 55.3328 166.001 55.3328Z" fill="black"/>
</g>
<defs>
<clipPath id="clip0">
<rect width="332" height="332" fill="white"/>
</clipPath>
</defs>
</svg>
