<svg width="332" height="298" viewBox="0 0 332 298" fill="none" xmlns="http://www.w3.org/2000/svg">
<path d="M325.516 65.6758H303.469V22.5547C303.469 10.3978 293.579 0.507812 281.422 0.507812H250.297C238.14 0.507812 228.25 10.3978 228.25 22.5547V47.8224C226.065 47.0001 223.701 46.5469 221.231 46.5469C216.031 46.5469 211.288 48.5434 207.728 51.8102C204.169 48.5434 199.426 46.5469 194.225 46.5469C189.025 46.5469 184.281 48.5434 180.722 51.8102C177.164 48.5434 172.42 46.5469 167.22 46.5469C162.019 46.5469 157.276 48.5434 153.717 51.8102C150.157 48.5434 145.414 46.5469 140.214 46.5469C129.59 46.5469 120.878 54.8793 120.264 65.3516H103.75V22.5547C103.75 10.3978 93.86 0.507812 81.7031 0.507812H50.5781C38.4212 0.507812 28.5312 10.3978 28.5312 22.5547V65.6758H6.48438C2.90305 65.6758 0 68.5788 0 72.1602V102.637C0 106.218 2.90305 109.121 6.48438 109.121H28.5312V152.242C28.5312 164.399 38.4212 174.289 50.5781 174.289H81.7031C90.5854 174.289 98.2519 169.006 101.741 161.42C104.958 168.376 110.32 174.364 117.197 178.345L125.699 185.017V291.008C125.699 294.589 128.602 297.492 132.183 297.492C135.765 297.492 138.668 294.589 138.668 291.008V181.863C138.668 179.871 137.753 177.991 136.186 176.762L124.826 167.847C124.564 167.641 124.285 167.456 123.994 167.293C116.458 163.068 111.608 155.27 111.337 146.944C111.328 146.675 111.324 146.406 111.324 146.137V110.256C123.845 107.316 133.195 96.0538 133.195 82.6486V66.5343C133.195 62.6644 136.344 59.5156 140.214 59.5156C144.083 59.5156 147.232 62.6638 147.232 66.5343V94.6408C147.232 98.2222 150.135 101.125 153.717 101.125C157.298 101.125 160.201 98.2222 160.201 94.6408V66.5343C160.201 62.6644 163.349 59.5156 167.22 59.5156C171.09 59.5156 174.238 62.6638 174.238 66.5343V94.6408C174.238 98.2222 177.141 101.125 180.723 101.125C184.304 101.125 187.207 98.2222 187.207 94.6408V66.5343C187.207 62.6644 190.355 59.5156 194.226 59.5156C198.096 59.5156 201.245 62.6638 201.245 66.5343V94.6408C201.245 98.2222 204.148 101.125 207.729 101.125C211.31 101.125 214.213 98.2222 214.213 94.6408V66.5343C214.213 62.6644 217.361 59.5156 221.232 59.5156C225.102 59.5156 228.25 62.6638 228.25 66.5343V142.516C228.25 157.637 222.012 172.336 211.136 182.842C209.871 184.064 209.157 185.747 209.157 187.506V261.828C209.157 265.409 212.06 268.312 215.642 268.312C219.223 268.312 222.126 265.409 222.126 261.828V190.176C228.021 183.99 232.681 176.759 235.924 168.938C239.787 172.269 244.809 174.289 250.297 174.289H281.422C293.579 174.289 303.469 164.399 303.469 152.242V109.121H325.516C329.097 109.121 332 106.218 332 102.637V72.1602C332 68.5788 329.097 65.6758 325.516 65.6758ZM12.9688 96.1523V78.6445H28.5312V96.1523H12.9688ZM90.7812 152.242C90.7812 157.248 86.7091 161.32 81.7031 161.32H50.5781C45.5722 161.32 41.5 157.248 41.5 152.242V22.5547C41.5 17.5487 45.5722 13.4766 50.5781 13.4766H81.7031C86.7091 13.4766 90.7812 17.5487 90.7812 22.5547V152.242ZM111.58 96.4766H103.75V78.3203H120.226V82.648C120.226 88.7161 116.695 93.9729 111.58 96.4766ZM290.5 152.242C290.5 157.248 286.428 161.32 281.422 161.32H250.297C245.291 161.32 241.219 157.248 241.219 152.242V22.5547C241.219 17.5487 245.291 13.4766 250.297 13.4766H281.422C286.428 13.4766 290.5 17.5487 290.5 22.5547V152.242ZM319.031 96.1523H303.469V78.6445H319.031V96.1523Z" fill="black"/>
<path d="M215.644 284.523C213.933 284.523 212.266 285.217 211.06 286.423C209.847 287.629 209.16 289.302 209.16 291.008C209.16 292.713 209.847 294.386 211.06 295.592C212.266 296.798 213.933 297.492 215.644 297.492C217.35 297.492 219.023 296.798 220.229 295.592C221.435 294.386 222.129 292.713 222.129 291.008C222.129 289.302 221.435 287.629 220.229 286.423C219.023 285.217 217.35 284.523 215.644 284.523Z" fill="black"/>
</svg>
