<svg width="289" height="289" viewBox="0 0 289 289" fill="none" xmlns="http://www.w3.org/2000/svg">
<path d="M144.5 0C64.6957 0 0 64.6957 0 144.5C0 224.304 64.6957 289 144.5 289C148.853 289 153.19 288.805 157.506 288.417C161.518 288.057 165.495 287.507 169.442 286.817L170.959 286.549C244.331 272.857 295.204 205.539 288.341 131.214C281.479 56.8898 219.14 0.0235189 144.5 0V0ZM132.891 278.856H132.55C128.804 278.525 125.085 278.024 121.4 277.382C121.188 277.344 120.976 277.321 120.769 277.281C117.166 276.636 113.601 275.836 110.071 274.903L109.217 274.684C105.774 273.75 102.368 272.666 99.0121 271.462C98.6641 271.337 98.3136 271.227 97.9656 271.097C94.6753 269.889 91.4438 268.534 88.2617 267.069C87.8665 266.892 87.4714 266.723 87.0763 266.535C83.9554 265.091 80.8955 263.463 77.8945 261.751C77.4712 261.511 77.0432 261.271 76.6198 261.034C73.6658 259.31 70.7801 257.461 67.9484 255.509C67.5204 255.21 67.0876 254.921 66.6619 254.622C63.8796 252.649 61.1679 250.554 58.5267 248.362L57.8 247.727V207.117C57.8353 177.869 81.5353 154.169 110.783 154.133H178.217C207.465 154.169 231.165 177.869 231.2 207.117V247.731L230.56 248.265C227.867 250.514 225.104 252.64 222.265 254.648C221.889 254.912 221.508 255.163 221.134 255.422C218.269 257.412 215.334 259.284 212.328 261.043C211.952 261.262 211.566 261.469 211.193 261.685C208.147 263.419 205.049 265.055 201.891 266.53C201.529 266.699 201.164 266.857 200.797 267.012C197.589 268.492 194.329 269.853 191.016 271.072C190.686 271.194 190.355 271.3 190.051 271.415C186.679 272.624 183.259 273.717 179.797 274.656L178.967 274.863C175.432 275.797 171.864 276.601 168.256 277.248C168.049 277.285 167.842 277.311 167.636 277.344C163.945 277.988 160.222 278.489 156.473 278.823H156.132C152.28 279.155 148.425 279.334 144.524 279.334C140.622 279.334 136.736 279.188 132.891 278.856ZM240.833 238.801V207.117C240.793 172.551 212.782 144.54 178.217 144.5H110.783C76.2176 144.54 48.2067 172.551 48.1667 207.117V238.797C-3.71128 185.849 -3.13272 100.957 49.4602 48.7194C102.053 -3.51607 186.947 -3.51607 239.54 48.7194C292.133 100.957 292.711 185.849 240.833 238.797V238.801Z" fill="black"/>
<path d="M144.5 38.5332C117.898 38.5332 96.3331 60.0977 96.3331 86.6999C96.3331 113.302 117.898 134.867 144.5 134.867C171.102 134.867 192.666 113.302 192.666 86.6999C192.638 60.1094 171.09 38.5614 144.5 38.5332ZM144.5 125.233C123.218 125.233 105.966 107.982 105.966 86.6999C105.966 65.4176 123.218 48.1665 144.5 48.1665C165.782 48.1665 183.033 65.4176 183.033 86.6999C183.01 107.97 165.77 125.21 144.5 125.233Z" fill="black"/>
</svg>
