<svg width="209" height="263" viewBox="0 0 209 263" fill="none" xmlns="http://www.w3.org/2000/svg">
<path d="M167.821 8.95721C167.821 4.33882 171.185 0.580443 175.321 0.580443L201.238 0.580444C205.374 0.580444 208.738 4.33882 208.738 8.95721L208.738 114.956C208.738 119.574 205.374 123.332 201.238 123.332L175.321 123.332C171.185 123.332 167.821 119.574 167.821 114.956L167.821 8.95721ZM167.821 254.462C167.821 259.081 171.185 262.839 175.321 262.839L201.238 262.839C205.374 262.839 208.738 259.081 208.738 254.462L208.738 148.464C208.738 143.845 205.374 140.087 201.238 140.087L175.321 140.087C171.185 140.087 167.821 143.845 167.821 148.464L167.821 254.462ZM111.905 184.708C111.905 189.327 115.27 193.085 119.405 193.085L145.321 193.085C149.457 193.085 152.821 189.327 152.821 184.708L152.821 78.71C152.821 74.0916 149.457 70.3332 145.321 70.3332L119.404 70.3332C115.269 70.3332 111.904 74.0916 111.904 78.71L111.904 184.708L111.905 184.708ZM111.905 45.2029C111.905 49.8224 115.269 53.5797 119.405 53.5797L145.321 53.5797C149.457 53.5797 152.821 49.8224 152.821 45.2029L152.821 9.56927C152.821 4.94976 149.457 1.1925 145.321 1.1925L119.404 1.1925C115.268 1.1925 111.904 4.94976 111.904 9.56927L111.904 45.2029L111.905 45.2029ZM111.905 253.85C111.905 258.47 115.269 262.227 119.405 262.227L145.321 262.227C149.457 262.227 152.821 258.47 152.821 253.85L152.821 218.217C152.821 213.597 149.457 209.84 145.321 209.84L119.404 209.84C115.268 209.84 111.904 213.597 111.904 218.217L111.904 253.85L111.905 253.85ZM55.9883 114.956C55.9883 119.574 59.3523 123.332 63.4883 123.332L89.4053 123.332C93.5403 123.332 96.9053 119.574 96.9053 114.956L96.9053 8.9572C96.9053 4.33881 93.5403 0.580439 89.4053 0.580439L63.4883 0.580437C59.3523 0.580437 55.9883 4.33881 55.9883 8.9572L55.9883 114.956ZM55.9883 254.462C55.9883 259.081 59.3523 262.839 63.4883 262.839L89.4053 262.839C93.5403 262.839 96.9053 259.081 96.9053 254.462L96.9053 148.464C96.9053 143.845 93.5403 140.087 89.4053 140.087L63.4883 140.087C59.3523 140.087 55.9883 143.845 55.9883 148.464L55.9883 254.462ZM0.0712666 184.708C0.0712664 189.327 3.43526 193.085 7.57127 193.085L33.4883 193.085C37.6243 193.085 40.9883 189.327 40.9883 184.708L40.9883 78.71C40.9883 74.0916 37.6243 70.3332 33.4883 70.3332L7.57127 70.3332C3.43527 70.3332 0.0712709 74.0916 0.0712707 78.71L0.0712666 184.708ZM0.0712721 45.2029C0.0712719 49.8224 3.43527 53.5797 7.57127 53.5797L33.4883 53.5797C37.6243 53.5797 40.9883 49.8224 40.9883 45.2029L40.9883 9.56926C40.9883 4.94976 37.6243 1.1925 33.4883 1.1925L7.57127 1.1925C3.43527 1.1925 0.0712736 4.94975 0.0712735 9.56926L0.0712721 45.2029ZM0.0712639 253.85C0.0712637 258.47 3.43526 262.227 7.57126 262.227L33.4883 262.227C37.6243 262.227 40.9883 258.47 40.9883 253.85L40.9883 218.217C40.9883 213.597 37.6243 209.84 33.4883 209.84L7.57127 209.84C3.43526 209.84 0.0712655 213.597 0.0712653 218.217L0.0712639 253.85Z" fill="#E9E9E9"/>
</svg>
