<svg width="532" height="107" viewBox="0 0 532 107" fill="none" xmlns="http://www.w3.org/2000/svg">
<path d="M157.5 63L168.325 81.75H146.675L157.5 63Z" fill="white"/>
<path d="M157.5 63L168.325 81.75H146.675L157.5 63Z" fill="white"/>
<circle cx="144.5" cy="13.5" r="10.5" fill="white"/>
<circle cx="144.5" cy="13.5" r="10.5" fill="white"/>
<path d="M187.5 11L198.325 29.75H176.675L187.5 11Z" fill="white"/>
<path d="M187.5 11L198.325 29.75H176.675L187.5 11Z" fill="white"/>
<circle cx="185.5" cy="53.5" r="10.5" fill="white"/>
<circle cx="185.5" cy="53.5" r="10.5" fill="white"/>
<rect x="145" y="32" width="21" height="21" fill="white"/>
<rect x="145" y="32" width="21" height="21" fill="white"/>
<rect x="185" y="71" width="21" height="21" fill="white"/>
<rect x="185" y="71" width="21" height="21" fill="white"/>
<path d="M95.5 71L106.325 89.75H84.6747L95.5 71Z" fill="white"/>
<path d="M95.5 71L106.325 89.75H84.6747L95.5 71Z" fill="white"/>
<circle cx="82.5" cy="21.5" r="10.5" fill="white"/>
<circle cx="82.5" cy="21.5" r="10.5" fill="white"/>
<path d="M125.5 19L136.325 37.75H114.675L125.5 19Z" fill="white"/>
<path d="M125.5 19L136.325 37.75H114.675L125.5 19Z" fill="white"/>
<circle cx="123.5" cy="61.5" r="10.5" fill="white"/>
<circle cx="123.5" cy="61.5" r="10.5" fill="white"/>
<rect x="83" y="40" width="21" height="21" fill="white"/>
<rect x="83" y="40" width="21" height="21" fill="white"/>
<rect x="123" y="79" width="21" height="21" fill="white"/>
<rect x="123" y="79" width="21" height="21" fill="white"/>
<path d="M23.5 60L34.3253 78.75H12.6747L23.5 60Z" fill="white"/>
<path d="M23.5 60L34.3253 78.75H12.6747L23.5 60Z" fill="white"/>
<circle cx="10.5" cy="10.5" r="10.5" fill="white"/>
<circle cx="10.5" cy="10.5" r="10.5" fill="white"/>
<path d="M53.5 8L64.3253 26.75H42.6747L53.5 8Z" fill="white"/>
<path d="M53.5 8L64.3253 26.75H42.6747L53.5 8Z" fill="white"/>
<circle cx="51.5" cy="50.5" r="10.5" fill="white"/>
<circle cx="51.5" cy="50.5" r="10.5" fill="white"/>
<rect x="11" y="29" width="21" height="21" fill="white"/>
<rect x="11" y="29" width="21" height="21" fill="white"/>
<rect x="51" y="68" width="21" height="21" fill="white"/>
<rect x="51" y="68" width="21" height="21" fill="white"/>
<path d="M507.5 78L518.325 96.75H496.675L507.5 78Z" fill="white"/>
<path d="M507.5 78L518.325 96.75H496.675L507.5 78Z" fill="white"/>
<circle cx="494.5" cy="28.5" r="10.5" fill="white"/>
<circle cx="494.5" cy="28.5" r="10.5" fill="white"/>
<path d="M537.5 26L548.325 44.75H526.675L537.5 26Z" fill="white"/>
<path d="M537.5 26L548.325 44.75H526.675L537.5 26Z" fill="white"/>
<circle cx="535.5" cy="68.5" r="10.5" fill="white"/>
<circle cx="535.5" cy="68.5" r="10.5" fill="white"/>
<rect x="495" y="47" width="21" height="21" fill="white"/>
<rect x="495" y="47" width="21" height="21" fill="white"/>
<path d="M435.5 67L446.325 85.75H424.675L435.5 67Z" fill="white"/>
<path d="M435.5 67L446.325 85.75H424.675L435.5 67Z" fill="white"/>
<circle cx="422.5" cy="17.5" r="10.5" fill="white"/>
<circle cx="422.5" cy="17.5" r="10.5" fill="white"/>
<path d="M465.5 15L476.325 33.75H454.675L465.5 15Z" fill="white"/>
<path d="M465.5 15L476.325 33.75H454.675L465.5 15Z" fill="white"/>
<circle cx="463.5" cy="57.5" r="10.5" fill="white"/>
<circle cx="463.5" cy="57.5" r="10.5" fill="white"/>
<rect x="423" y="36" width="21" height="21" fill="white"/>
<rect x="423" y="36" width="21" height="21" fill="white"/>
<rect x="463" y="75" width="21" height="21" fill="white"/>
<rect x="463" y="75" width="21" height="21" fill="white"/>
<path d="M363.5 67L374.325 85.75H352.675L363.5 67Z" fill="white"/>
<path d="M363.5 67L374.325 85.75H352.675L363.5 67Z" fill="white"/>
<circle cx="350.5" cy="17.5" r="10.5" fill="white"/>
<circle cx="350.5" cy="17.5" r="10.5" fill="white"/>
<path d="M393.5 15L404.325 33.75H382.675L393.5 15Z" fill="white"/>
<path d="M393.5 15L404.325 33.75H382.675L393.5 15Z" fill="white"/>
<circle cx="391.5" cy="57.5" r="10.5" fill="white"/>
<circle cx="391.5" cy="57.5" r="10.5" fill="white"/>
<rect x="351" y="36" width="21" height="21" fill="white"/>
<rect x="351" y="36" width="21" height="21" fill="white"/>
<rect x="391" y="75" width="21" height="21" fill="white"/>
<rect x="391" y="75" width="21" height="21" fill="white"/>
<path d="M301.5 75L312.325 93.75H290.675L301.5 75Z" fill="white"/>
<path d="M301.5 75L312.325 93.75H290.675L301.5 75Z" fill="white"/>
<circle cx="288.5" cy="25.5" r="10.5" fill="white"/>
<circle cx="288.5" cy="25.5" r="10.5" fill="white"/>
<path d="M331.5 23L342.325 41.75H320.675L331.5 23Z" fill="white"/>
<path d="M331.5 23L342.325 41.75H320.675L331.5 23Z" fill="white"/>
<circle cx="329.5" cy="65.5" r="10.5" fill="white"/>
<circle cx="329.5" cy="65.5" r="10.5" fill="white"/>
<rect x="289" y="44" width="21" height="21" fill="white"/>
<rect x="289" y="44" width="21" height="21" fill="white"/>
<rect x="329" y="83" width="21" height="21" fill="white"/>
<rect x="329" y="83" width="21" height="21" fill="white"/>
<path d="M229.5 64L240.325 82.75H218.675L229.5 64Z" fill="white"/>
<path d="M229.5 64L240.325 82.75H218.675L229.5 64Z" fill="white"/>
<circle cx="216.5" cy="14.5" r="10.5" fill="white"/>
<circle cx="216.5" cy="14.5" r="10.5" fill="white"/>
<path d="M259.5 12L270.325 30.75H248.675L259.5 12Z" fill="white"/>
<path d="M259.5 12L270.325 30.75H248.675L259.5 12Z" fill="white"/>
<circle cx="257.5" cy="54.5" r="10.5" fill="white"/>
<circle cx="257.5" cy="54.5" r="10.5" fill="white"/>
<rect x="217" y="33" width="21" height="21" fill="white"/>
<rect x="217" y="33" width="21" height="21" fill="white"/>
<rect x="257" y="72" width="21" height="21" fill="white"/>
<rect x="257" y="72" width="21" height="21" fill="white"/>
</svg>
